<?xml version="1.0" encoding="utf-8"?>
<!-- Generator: Adobe Illustrator 28.2.0, SVG Export Plug-In . SVG Version: 6.00 Build 0)  -->
<svg version="1.1" id="Layer_1" xmlns="http://www.w3.org/2000/svg" xmlns:xlink="http://www.w3.org/1999/xlink" x="0px" y="0px"
	 viewBox="0 0 150.87 166.48" style="enable-background:new 0 0 150.87 166.48;" xml:space="preserve">
<style type="text/css">
	.st0{fill:#79A2CC;}
</style>
<path class="st0" d="M138.59,22.1L138.59,22.1C103.85,18.77,84.21,3.33,84.21,3.16c-5.09-4.21-12.28-4.21-17.37,0
	C66.66,3.33,47.01,18.77,12.28,22.1C5.26,22.81,0,28.59,0,35.61c0,98.24,67.19,128.59,70,129.82c1.75,0.7,3.51,1.05,5.44,1.05
	c1.93,0,3.68-0.35,5.44-1.05c2.81-1.23,70-31.58,70-129.82C150.87,28.59,145.61,22.81,138.59,22.1z M75.26,153.5
	c-1.05-0.53-13.16-5.96-26.31-19.47l1.75-15.26c1.05-8.42,8.07-14.74,16.49-14.74H83.5c8.42,0,15.61,6.32,16.49,14.74l1.75,15.26
	C88.77,147.54,76.49,152.97,75.26,153.5z M75.43,88.24c-8.42,0-15.26-6.84-15.26-15.26s6.84-15.26,15.26-15.26
	S90.7,64.56,90.7,72.98S83.85,88.24,75.43,88.24z M113.5,119.99l-0.35-2.81c-1.23-10.88-8.42-19.65-17.89-23.86
	c5.26-5.26,8.6-12.46,8.6-20.35c0-15.61-12.81-28.42-28.42-28.42S47.01,57.37,47.01,72.98c0,8.07,3.33,15.26,8.6,20.35
	c-9.47,4.03-16.67,12.98-17.89,23.86l-0.35,2.81c-12.81-18.42-23.86-45.61-23.68-84.56c39.65-3.86,61.4-21.93,62.1-21.93
	c0.88,0.7,22.81,18.24,61.58,21.93l0.35,0.35C137.71,74.56,126.48,101.75,113.5,119.99z"/>
</svg>
