<?xml version="1.0" encoding="utf-8"?>
<!-- Generator: Adobe Illustrator 28.2.0, SVG Export Plug-In . SVG Version: 6.00 Build 0)  -->
<svg version="1.1" id="Layer_1" xmlns="http://www.w3.org/2000/svg" xmlns:xlink="http://www.w3.org/1999/xlink" x="0px" y="0px"
	 viewBox="0 0 134.61 157.05" style="enable-background:new 0 0 134.61 157.05;" xml:space="preserve">
<style type="text/css">
	.st0{fill:#79A2CC;}
</style>
<g>
	<path class="st0" d="M78.53,23.39V11.22h8.41c1.54,0,2.8-1.26,2.8-2.8V2.8c0-1.54-1.26-2.8-2.8-2.8H47.68c-1.54,0-2.8,1.26-2.8,2.8
		v5.61c0,1.54,1.26,2.8,2.8,2.8h8.41v12.17C24.26,28.72,0,56.4,0,89.74c0,37.16,30.15,67.31,67.31,67.31s67.31-30.15,67.31-67.31
		C134.61,56.4,110.36,28.72,78.53,23.39z M117.2,64.19l-7.21,4.15c-0.42,0.25-0.93,0.36-1.4,0.36c-0.95,0-1.91-0.5-2.41-1.4
		c-0.79-1.35-0.34-3.06,1.01-3.84l7.21-4.15C115.4,60.88,116.33,62.51,117.2,64.19z M88.71,47.06l4.15-7.21
		c1.68,0.87,3.31,1.79,4.88,2.8l-4.15,7.21c-0.53,0.9-1.49,1.4-2.44,1.4c-0.48,0-0.95-0.14-1.4-0.39
		C88.4,50.12,87.95,48.41,88.71,47.06z M97.74,136.83l-4.15-7.21c-0.79-1.35-2.5-1.79-3.84-1.01c-1.35,0.76-1.79,2.47-1.04,3.81
		l4.18,7.24c-6.9,3.56-14.61,5.69-22.77,6.09v-13.94c0-1.54-1.26-2.8-2.8-2.8s-2.8,1.26-2.8,2.8v13.94
		c-8.16-0.39-15.9-2.55-22.77-6.09l4.18-7.24c0.76-1.35,0.31-3.06-1.04-3.81c-1.35-0.79-3.06-0.34-3.84,1.01l-4.15,7.21
		c-6.67-4.29-12.37-9.98-16.66-16.66l7.21-4.15c1.35-0.79,1.79-2.5,1.01-3.84c-0.76-1.35-2.5-1.79-3.81-1.04l-7.24,4.18
		c-3.53-6.87-5.69-14.61-6.09-22.77h13.94c1.54,0,2.8-1.26,2.8-2.8c0-1.54-1.26-2.8-2.8-2.8H11.3c0.39-8.16,2.55-15.9,6.09-22.77
		l7.24,4.18c0.42,0.25,0.93,0.36,1.4,0.36c0.95,0,1.91-0.5,2.41-1.4c0.79-1.35,0.34-3.06-1.01-3.84l-7.21-4.15
		c4.29-6.67,9.98-12.37,16.66-16.66l4.15,7.21c0.53,0.9,1.49,1.4,2.44,1.4c0.48,0,0.95-0.14,1.4-0.39c1.35-0.76,1.79-2.47,1.04-3.81
		l-4.18-7.24c7.66-3.95,16.35-6.17,25.58-6.17v42.07c7.74,0,14.02,6.28,14.02,14.02c0,2.44-0.65,4.85-1.85,6.98
		c0,0,0,0.03-0.03,0.03l36.4,21.03C111.39,125.5,105.17,132.03,97.74,136.83z M109.37,92.55c-1.54,0-2.8-1.26-2.8-2.8
		c0-1.54,1.26-2.8,2.8-2.8h13.88c0.06,0.93,0.14,1.85,0.14,2.8c0,0.95-0.06,1.88-0.08,2.8H109.37z"/>
	<path class="st0" d="M67.31,81.33c-4.66,0-8.41,3.76-8.41,8.41s3.76,8.41,8.41,8.41c3.11,0,5.83-1.68,7.29-4.21
		c0.7-1.23,1.12-2.66,1.12-4.21C75.72,85.09,71.96,81.33,67.31,81.33z"/>
</g>
</svg>
