<?xml version="1.0" encoding="utf-8"?>
<!-- Generator: Adobe Illustrator 28.2.0, SVG Export Plug-In . SVG Version: 6.00 Build 0)  -->
<svg version="1.1" id="Layer_1" xmlns="http://www.w3.org/2000/svg" xmlns:xlink="http://www.w3.org/1999/xlink" x="0px" y="0px"
	 viewBox="0 0 168.37 166.35" style="enable-background:new 0 0 168.37 166.35;" xml:space="preserve">
<style type="text/css">
	.st0{fill:#79A2CC;}
</style>
<g>
	<path class="st0" d="M110.63,106.7c-1.19,0.39-2.2,1.2-2.84,2.29l-7.38,12.66c-0.63,1.08-0.84,2.36-0.59,3.59
		c0.66,3.54,2.2,6.85,4.49,9.63v1.65c-2.09,2.42-3.56,5.31-4.29,8.43H3.42c-1.88,0-3.41-1.52-3.42-3.41c0-0.17,0.01-0.34,0.04-0.5
		c1.79-14.14,8-27.35,17.75-37.74C29.32,91.81,45.8,86.23,66.81,86.59c22.26-0.38,39.3,5.95,50.91,18.91
		C115.31,105.56,112.93,105.96,110.63,106.7z M167.11,144.13c0.47,0.83,0.86,1.69,1.16,2.59l-5.22,8.94
		c-0.92,0.19-1.86,0.28-2.79,0.27c-1.63-1.22-3.83-1.35-5.6-0.34l-6.07,3.48c-1.77,1.01-2.77,2.96-2.56,4.98
		c-0.47,0.83-1.03,1.59-1.67,2.29l-10.34-0.03c-0.62-0.72-1.17-1.5-1.64-2.32c0.24-2.02-0.74-3.99-2.49-5.02l-6.07-3.51
		c-1.75-1.03-3.95-0.92-5.59,0.27c-0.94,0.01-1.88-0.08-2.8-0.27l-5.15-8.98c0.31-0.9,0.71-1.77,1.19-2.59
		c1.87-0.8,3.08-2.64,3.07-4.68l0.03-7c0.03-2.04-1.17-3.9-3.04-4.71c-0.47-0.81-0.86-1.67-1.16-2.56l5.22-8.94
		c0.92-0.2,1.86-0.3,2.8-0.27c1.63,1.22,3.83,1.35,5.6,0.34l6.11-3.48c1.75-1.02,2.74-2.97,2.53-4.98c0.47-0.83,1.03-1.61,1.67-2.32
		l10.34,0.07c0.63,0.7,1.18,1.47,1.64,2.29c-0.24,2.02,0.74,3.99,2.49,5.02l6.07,3.55c1.76,1.02,3.96,0.9,5.6-0.31
		c0.94-0.01,1.88,0.09,2.8,0.31l5.15,8.98c-0.3,0.89-0.71,1.75-1.19,2.56c-1.87,0.81-3.07,2.64-3.07,4.68l-0.03,7.03
		C164.04,141.49,165.24,143.34,167.11,144.13z M143.93,127.89c-4.38-2.55-10-1.07-12.56,3.31c-2.55,4.38-1.07,10,3.31,12.56
		c4.38,2.55,10,1.07,12.56-3.31c2.55-4.39,1.06-10.01-3.32-12.57L143.93,127.89z M66.73,72.78c20.1,0,36.39-16.29,36.38-36.39
		C103.11,16.29,86.82,0,66.72,0c-20.1,0-36.38,16.29-36.38,36.39C30.36,56.48,46.64,72.76,66.73,72.78z"/>
</g>
</svg>
