<?xml version="1.0" encoding="utf-8"?>
<!-- Generator: Adobe Illustrator 28.2.0, SVG Export Plug-In . SVG Version: 6.00 Build 0)  -->
<svg version="1.1" id="Layer_1" xmlns="http://www.w3.org/2000/svg" xmlns:xlink="http://www.w3.org/1999/xlink" x="0px" y="0px"
	 viewBox="0 0 166.63 165.01" style="enable-background:new 0 0 166.63 165.01;" xml:space="preserve">
<style type="text/css">
	.st0{fill:#79A2CC;}
</style>
<g>
	<path class="st0" d="M30.95,60.4h71.57c5.26,0,9.56,4.3,9.56,9.56v25.09c0,5.26-4.3,9.56-9.56,9.56H30.95V60.4z"/>
	<path class="st0" d="M1.79,78.16l35.37-35.57c3.88-3.9,10.53-1.15,10.53,4.35l0,71.13c0,5.5-6.65,8.24-10.53,4.35L1.79,86.85
		C-0.6,84.44-0.6,80.56,1.79,78.16z"/>
	<path class="st0" d="M56.28,42.35V5.72c0,0-0.66-5.24,5.41-5.57c6.06-0.33,99.79,0,99.79,0s4.92,0.49,5.08,8.36s0,151.74,0,151.74
		s-0.16,4.75-6.72,4.75c-6.55,0-97.82,0-97.82,0s-5.94,0.66-5.76-8.52c0.18-9.18,0-34.49,0-34.49h13.63v29.91h82.25V13.75H69.89
		v28.61H56.28z"/>
</g>
</svg>
